<?xml version="1.0" encoding="utf-8"?>
<!-- Generator: Adobe Illustrator 18.1.1, SVG Export Plug-In . SVG Version: 6.00 Build 0)  -->
<!DOCTYPE svg PUBLIC "-//W3C//DTD SVG 1.1//EN" "http://www.w3.org/Graphics/SVG/1.1/DTD/svg11.dtd">
<svg version="1.1" id="Layer_1" xmlns="http://www.w3.org/2000/svg" xmlns:xlink="http://www.w3.org/1999/xlink" x="0px" y="0px"
	 viewBox="0 0 256 256" style="enable-background:new 0 0 256 256;" xml:space="preserve">
<style type="text/css">
	.st0{fill:#BC9D6D;}
</style>
<g>
	<path class="st0" d="M190,139C190,139,190,139,190,139c11.6-3.5,23.5-8.2,35-14.4c18.4-10.7,27.9,0.4,21,17.3
		c-5.8,15.9-36.9,45.6-63.9,52.4c-10.4-7.3-30.7-12.3-54.1-12.4c-23.5,0.1-43.8,5.1-54.1,12.4c-27-6.8-58.1-36.4-63.9-52.4
		c-6.8-16.9,2.6-28,21-17.3c11.5,6.3,23.5,11,35,14.5c24.8,7.5,47.5,9.3,59.4,9.3l6.5,0C143.8,148.2,165.9,146.3,190,139z"/>
	<g id="XMLID_1_">
		<path class="st0" d="M156.6,64.1c9.6,4.8,25.3,50.2,31.4,68.8c-23.3,6.8-44.5,8.6-56.1,8.7l-6.5,0c-11.6,0-33.4-1.7-57.4-8.7
			c6.1-18.6,21.8-64,31.4-68.8c11.1-5.5,20.5,3.6,28.2,4.5h-1.5c0.6,0.1,1.2,0.1,1.9,0c0.6,0.1,1.3,0,1.9,0h-1.5
			C136,67.7,145.5,58.5,156.6,64.1z M152.8,99.3c0-2-1.6-3.6-3.6-3.6c-1.9,0-3.4,1.4-3.6,3.2l-11.2-1.6l-4.9-10
			c1.3-0.5,2.3-1.8,2.3-3.4c0-2-1.6-3.6-3.6-3.6s-3.6,1.6-3.6,3.6c0,1.5,1,2.9,2.3,3.4l-4.9,10l-11.3,1.6c-0.2-1.8-1.8-3.2-3.6-3.2
			c-2,0-3.6,1.6-3.6,3.6c0,2,1.6,3.6,3.6,3.6c1.2,0,2.3-0.6,3-1.6l8,7.8l-2,11.7c-0.4-0.2-0.9-0.3-1.4-0.3c-2,0-3.6,1.6-3.6,3.6
			c0,2,1.6,3.6,3.6,3.6c2,0,3.6-1.6,3.6-3.6c0-0.8-0.2-1.5-0.6-2l10.6-5.6l10.6,5.6c-0.4,0.6-0.6,1.3-0.6,2.1c0,2,1.6,3.6,3.6,3.6
			c2,0,3.6-1.6,3.6-3.6s-1.6-3.6-3.6-3.6c-0.5,0-1,0.1-1.4,0.3l-2-11.7l8-7.8c0.7,0.9,1.7,1.5,3,1.5
			C151.2,102.9,152.8,101.3,152.8,99.3z"/>
	</g>
</g>
<g>
</g>
<g>
</g>
<g>
</g>
<g>
</g>
<g>
</g>
<g>
</g>
</svg>
