<?xml version="1.0" encoding="utf-8"?>
<!-- Generator: Adobe Illustrator 18.1.1, SVG Export Plug-In . SVG Version: 6.00 Build 0)  -->
<!DOCTYPE svg PUBLIC "-//W3C//DTD SVG 1.1//EN" "http://www.w3.org/Graphics/SVG/1.1/DTD/svg11.dtd">
<svg version="1.1" id="Layer_1" xmlns="http://www.w3.org/2000/svg" xmlns:xlink="http://www.w3.org/1999/xlink" x="0px" y="0px"
	 viewBox="0 0 256 256" style="enable-background:new 0 0 256 256;" xml:space="preserve">
<style type="text/css">
	.st0{fill:#87714F;}
</style>
<g id="Your_Icon">
	<path class="st0" d="M226.2,175.5c-1.7,0-3.3,0.6-4.6,1.4l-29.1-49l29.1-49c1.4,0.8,2.9,1.4,4.6,1.4c5.1,0,9.2-4.1,9.2-9.3
		c0-5.1-4.1-9.2-9.2-9.2c-5.1,0-9.2,4.1-9.2,9.2c0,0,0,0.1,0,0.1L160.2,72l-27.9-49.7c2.8-1.6,4.8-4.5,4.8-7.9
		c0-5.1-4.1-9.2-9.2-9.2c-5.1,0-9.2,4.1-9.2,9.2c0,3.5,2,6.4,4.8,7.9L95.6,72l-56.8-0.7c0,0,0-0.1,0-0.1c0-5.1-4.1-9.2-9.2-9.2
		c-5.1,0-9.2,4.1-9.2,9.2c0,5.1,4.1,9.3,9.2,9.3c1.7,0,3.2-0.6,4.6-1.4l29.1,49l-29.1,49c-1.4-0.8-2.9-1.4-4.6-1.4
		c-5.1,0-9.2,4.1-9.2,9.2c0,5.1,4.1,9.3,9.2,9.3c5.1,0,9.2-4.1,9.2-9.3c0,0,0-0.1,0-0.1l56.8-0.7l27.9,49.7
		c-2.8,1.6-4.8,4.5-4.8,7.9c0,5.1,4.1,9.2,9.2,9.2c5.1,0,9.2-4.1,9.2-9.2c0-3.5-2-6.4-4.8-7.9l27.9-49.7l56.8,0.7c0,0,0,0.1,0,0.1
		c0,5.1,4.1,9.3,9.2,9.3c5.1,0,9.2-4.1,9.2-9.3C235.5,179.7,231.3,175.5,226.2,175.5z"/>
</g>
<g>
</g>
<g>
</g>
<g>
</g>
<g>
</g>
<g>
</g>
<g>
</g>
</svg>
